<svg xmlns="http://www.w3.org/2000/svg" version="1.1" xmlns:xlink="http://www.w3.org/1999/xlink" xmlns:svgjs="http://svgjs.com/svgjs" width="61" height="32"><svg width="61" height="32" viewBox="0 0 61 32" fill="none" xmlns="http://www.w3.org/2000/svg">
<path d="M46.728 28.7279L58.7488 16.7071C59.1394 16.3166 59.1394 15.6834 58.7488 15.2929L46.728 3.27206" stroke="#29BEAE" stroke-width="3" stroke-linecap="round"></path>
<path d="M14.728 3L2.70721 15.0208C2.31669 15.4113 2.31669 16.0445 2.70721 16.435L14.728 28.4558" stroke="#29BEAE" stroke-width="3" stroke-linecap="round"></path>
<path d="M43.9749 3.02513C42.6081 1.65829 40.392 1.65829 39.0252 3.02513L37.4823 4.568L42.432 9.51775L43.9749 7.97487C45.3417 6.60804 45.3417 4.39196 43.9749 3.02513Z" fill="#29BEAE"></path>
<path d="M41.0178 10.932L36.0681 5.98222L19.8669 22.1833C19.0446 23.0057 18.44 24.0201 18.108 25.1347L17.0416 28.7145C16.9368 29.0664 17.0333 29.4475 17.2929 29.7071C17.5526 29.9667 17.9336 30.0632 18.2855 29.9584L21.8654 28.892C22.98 28.56 23.9943 27.9554 24.8167 27.1331L41.0178 10.932Z" fill="#29BEAE"></path>
</svg><style>@media (prefers-color-scheme: light) { :root { filter: none; } }
</style></svg>